<svg viewBox="0 0 600 400" xmlns="http://www.w3.org/2000/svg" role="img" aria-label="Audio Visualizer — frontend · spotify-aware visuals"><defs><pattern id="audio-visualizer-fine" width="30" height="30" patternUnits="userSpaceOnUse"><path d="M30 0H0V30" fill="none" stroke="var(--color-grid-line)" stroke-width="1"/></pattern><pattern id="audio-visualizer-bold" width="120" height="120" patternUnits="userSpaceOnUse"><path d="M120 0H0V120" fill="none" stroke="var(--color-crease-line)" stroke-width="1"/></pattern></defs><rect x="0.00" y="0.00" width="600.00" height="400.00" rx="0" fill="var(--color-graph)" fill-opacity="1"/><rect x="0.00" y="0.00" width="600.00" height="400.00" rx="0" fill="url(#audio-visualizer-fine)" fill-opacity="1"/><rect x="0.00" y="0.00" width="600.00" height="400.00" rx="0" fill="url(#audio-visualizer-bold)" fill-opacity="1"/><rect x="14.00" y="14.00" width="572.00" height="372.00" rx="0" fill="none" stroke="var(--color-graphite)" stroke-width="1" stroke-opacity="0.18"/><line x1="14.00" y1="14.00" x2="36.00" y2="14.00" stroke="var(--color-crease)" stroke-width="2.2" stroke-opacity="1" stroke-linecap="round"/><line x1="14.00" y1="14.00" x2="14.00" y2="36.00" stroke="var(--color-crease)" stroke-width="2.2" stroke-opacity="1" stroke-linecap="round"/><line x1="586.00" y1="14.00" x2="564.00" y2="14.00" stroke="var(--color-crease)" stroke-width="2.2" stroke-opacity="1" stroke-linecap="round"/><line x1="586.00" y1="14.00" x2="586.00" y2="36.00" stroke="var(--color-crease)" stroke-width="2.2" stroke-opacity="1" stroke-linecap="round"/><line x1="14.00" y1="386.00" x2="36.00" y2="386.00" stroke="var(--color-crease)" stroke-width="2.2" stroke-opacity="1" stroke-linecap="round"/><line x1="14.00" y1="386.00" x2="14.00" y2="364.00" stroke="var(--color-crease)" stroke-width="2.2" stroke-opacity="1" stroke-linecap="round"/><line x1="586.00" y1="386.00" x2="564.00" y2="386.00" stroke="var(--color-crease)" stroke-width="2.2" stroke-opacity="1" stroke-linecap="round"/><line x1="586.00" y1="386.00" x2="586.00" y2="364.00" stroke="var(--color-crease)" stroke-width="2.2" stroke-opacity="1" stroke-linecap="round"/><g transform="translate(0,2)"><circle cx="300.00" cy="165.00" r="96.00" fill="none" stroke="var(--color-crease-line-bold)" stroke-width="1.2" stroke-opacity="1"/><polygon points="396.00,165.00 402.55,173.97 404.71,183.46 397.71,191.18 384.73,195.84 374.75,199.86 373.77,207.59 378.83,220.19 381.33,233.25 375.82,240.82 364.35,241.69 352.91,240.57 344.90,242.78 339.13,248.91 332.87,255.30 325.15,258.88 316.76,260.05 308.37,260.66 300.00,260.96 291.68,260.04 283.54,258.37 275.11,257.87 265.87,258.76 256.79,257.66 250.40,250.90 247.77,239.59 245.72,229.69 238.87,226.13 225.75,227.30 211.92,226.67 205.44,219.59 208.66,207.59 215.42,195.78 217.26,187.17 211.70,180.57 203.79,173.42 199.87,165.00 201.28,156.36 204.83,148.22 207.64,140.25 209.91,132.21 213.01,124.43 216.83,116.98 220.48,109.32 224.60,101.73 231.13,96.13 240.33,93.89 249.42,92.76 255.41,87.77 258.87,76.79 263.49,64.69 271.86,59.98 282.56,66.08 292.29,76.91 300.00,82.27 307.62,77.85 316.92,69.02 326.89,64.64 335.18,68.35 341.27,76.50 346.97,83.65 353.82,88.13 361.27,91.98 367.91,97.09 373.54,103.29 378.83,109.80 383.39,116.86 385.87,124.96 386.73,133.43 389.19,141.10 395.75,148.12 403.67,155.93" fill="none" stroke="var(--color-crease)" stroke-width="1.4" stroke-opacity="1" stroke-linejoin="round" stroke-linecap="round"/><rect x="225.50" y="156.00" width="9.00" height="18.00" rx="2" fill="var(--color-crease)" fill-opacity="0.92"/><rect x="239.50" y="148.00" width="9.00" height="34.00" rx="2" fill="var(--color-crease)" fill-opacity="0.92"/><rect x="253.50" y="139.00" width="9.00" height="52.00" rx="2" fill="var(--color-crease)" fill-opacity="0.92"/><rect x="267.50" y="130.00" width="9.00" height="70.00" rx="2" fill="var(--color-crease)" fill-opacity="0.92"/><rect x="281.50" y="136.00" width="9.00" height="58.00" rx="2" fill="var(--color-crease)" fill-opacity="0.92"/><rect x="295.50" y="125.00" width="9.00" height="80.00" rx="2" fill="var(--color-crane)" fill-opacity="0.92"/><rect x="309.50" y="142.00" width="9.00" height="46.00" rx="2" fill="var(--color-crease)" fill-opacity="0.92"/><rect x="323.50" y="133.00" width="9.00" height="64.00" rx="2" fill="var(--color-crease)" fill-opacity="0.92"/><rect x="337.50" y="150.00" width="9.00" height="30.00" rx="2" fill="var(--color-crease)" fill-opacity="0.92"/><rect x="351.50" y="145.00" width="9.00" height="40.00" rx="2" fill="var(--color-crease)" fill-opacity="0.92"/><rect x="365.50" y="154.00" width="9.00" height="22.00" rx="2" fill="var(--color-crease)" fill-opacity="0.92"/><polygon points="150.00,285.00 150.00,297.00 160.00,291.00" fill="var(--color-crane)" fill-opacity="1" stroke="var(--color-crease)" stroke-width="1.4" stroke-opacity="1" stroke-linejoin="round" stroke-linecap="round"/><line x1="168.00" y1="291.00" x2="450.00" y2="291.00" stroke="var(--color-crease-line-bold)" stroke-width="2" stroke-opacity="1" stroke-linecap="round"/><line x1="168.00" y1="291.00" x2="330.00" y2="291.00" stroke="var(--color-crane)" stroke-width="2.4" stroke-opacity="1" stroke-linecap="round"/><circle cx="330.00" cy="291.00" r="3.40" fill="var(--color-crane)" fill-opacity="1"/><text x="450.0" y="281.0" font-family="'IBM Plex Mono', ui-monospace, 'SFMono-Regular', monospace" font-size="10.5" font-weight="400" fill="var(--color-graphite-60)" fill-opacity="1" text-anchor="end">now playing</text></g><line x1="28.00" y1="330.00" x2="178.00" y2="330.00" stroke="var(--color-crane)" stroke-width="2.6" stroke-opacity="1" stroke-linecap="round"/><text x="28.0" y="360.0" font-family="'IBM Plex Mono', ui-monospace, 'SFMono-Regular', monospace" font-size="21" font-weight="500" fill="var(--color-graphite)" fill-opacity="1" text-anchor="start">Audio Visualizer</text><text x="28.0" y="380.0" font-family="'IBM Plex Mono', ui-monospace, 'SFMono-Regular', monospace" font-size="12" font-weight="400" fill="var(--color-graphite-60)" fill-opacity="1" text-anchor="start">frontend · spotify-aware visuals</text><text x="572.0" y="44.0" font-family="'IBM Plex Mono', ui-monospace, 'SFMono-Regular', monospace" font-size="11" font-weight="400" fill="var(--color-graphite-40)" fill-opacity="1" text-anchor="end">ponderance.dev/workshop</text></svg>