<svg viewBox="0 0 600 400" xmlns="http://www.w3.org/2000/svg" role="img" aria-label="FlatFold — security · encrypted messaging"><defs><pattern id="flatfold-fine" width="30" height="30" patternUnits="userSpaceOnUse"><path d="M30 0H0V30" fill="none" stroke="var(--color-grid-line)" stroke-width="1"/></pattern><pattern id="flatfold-bold" width="120" height="120" patternUnits="userSpaceOnUse"><path d="M120 0H0V120" fill="none" stroke="var(--color-crease-line)" stroke-width="1"/></pattern></defs><rect x="0" y="0" width="600" height="400" fill="var(--color-graph)"/><rect x="0" y="0" width="600" height="400" fill="url(#flatfold-fine)"/><rect x="0" y="0" width="600" height="400" fill="url(#flatfold-bold)"/><rect x="14" y="14" width="572" height="372" fill="none" stroke="var(--color-graphite)" stroke-width="1" stroke-opacity="0.18"/><line x1="14" y1="14" x2="36" y2="14" stroke="var(--color-crease)" stroke-width="2.2" stroke-linecap="round"/><line x1="14" y1="14" x2="14" y2="36" stroke="var(--color-crease)" stroke-width="2.2" stroke-linecap="round"/><line x1="586" y1="14" x2="564" y2="14" stroke="var(--color-crease)" stroke-width="2.2" stroke-linecap="round"/><line x1="586" y1="14" x2="586" y2="36" stroke="var(--color-crease)" stroke-width="2.2" stroke-linecap="round"/><line x1="14" y1="386" x2="36" y2="386" stroke="var(--color-crease)" stroke-width="2.2" stroke-linecap="round"/><line x1="14" y1="386" x2="14" y2="364" stroke="var(--color-crease)" stroke-width="2.2" stroke-linecap="round"/><line x1="586" y1="386" x2="564" y2="386" stroke="var(--color-crease)" stroke-width="2.2" stroke-linecap="round"/><line x1="586" y1="386" x2="586" y2="364" stroke="var(--color-crease)" stroke-width="2.2" stroke-linecap="round"/><text x="300" y="70" font-family="'IBM Plex Mono', ui-monospace, 'SFMono-Regular', monospace" font-size="10" font-weight="400" fill="var(--art-accent)" text-anchor="middle">→ nothing stored, nothing to hand over</text><g transform="translate(198,92) scale(3.4)"><path d="M8 8H32L56 32V56H8Z" fill="var(--color-graph-card)"/><path d="M8 8L56 56" stroke="var(--color-crease-line)" stroke-width="0.5"/><path d="M8 56L44 20" stroke="var(--color-crease-line-bold)" stroke-width="0.6"/><path d="M32 8L56 32L32 32Z" fill="var(--color-crane)" fill-opacity="0.9" stroke="var(--color-crane)" stroke-width="0.4" stroke-linejoin="round"/><path d="M8 8H32L56 32V56H8Z" fill="none" stroke="var(--color-crease)" stroke-width="1.1" stroke-linejoin="round"/></g><g transform="translate(276,196)"><rect x="0" y="14" width="48" height="34" rx="5" fill="var(--color-graph-card)" stroke="var(--color-crease)" stroke-width="1.8"/><path d="M9 14 V7 Q9 -5 24 -5 Q39 -5 39 7 V14" fill="none" stroke="var(--color-crease)" stroke-width="1.8" stroke-linecap="round"/><circle cx="24" cy="28" r="4.5" fill="var(--art-accent)"/><line x1="24" y1="31" x2="24" y2="39" stroke="var(--art-accent)" stroke-width="2.4" stroke-linecap="round"/></g><g transform="translate(0,0)"><circle cx="120" cy="300" r="6" fill="var(--color-graph-card)" stroke="var(--color-crease)" stroke-width="1.6"/><circle cx="300" cy="300" r="6" fill="var(--color-graph-card)" stroke="var(--color-graphite)" stroke-width="1.6"/><circle cx="480" cy="300" r="6" fill="var(--color-graph-card)" stroke="var(--color-crane)" stroke-width="1.6"/><line x1="128" y1="300" x2="292" y2="300" stroke="var(--color-crease-line-bold)" stroke-width="1.2" stroke-linecap="round" stroke-dasharray="3 4"/><line x1="308" y1="300" x2="472" y2="300" stroke="var(--color-crease-line-bold)" stroke-width="1.2" stroke-linecap="round" stroke-dasharray="3 4"/><text x="120" y="322" font-family="'IBM Plex Mono', ui-monospace, monospace" font-size="9.5" font-weight="400" fill="var(--color-graphite-60)" text-anchor="middle">you</text><text x="300" y="322" font-family="'IBM Plex Mono', ui-monospace, monospace" font-size="9.5" font-weight="400" fill="var(--color-graphite-60)" text-anchor="middle">relay</text><text x="480" y="322" font-family="'IBM Plex Mono', ui-monospace, monospace" font-size="9.5" font-weight="400" fill="var(--color-graphite-60)" text-anchor="middle">server</text></g><line x1="28" y1="336" x2="120" y2="336" stroke="var(--color-crane)" stroke-width="2.6" stroke-linecap="round"/><text x="28" y="362" font-family="'IBM Plex Mono', ui-monospace, 'SFMono-Regular', monospace" font-size="21" font-weight="500" fill="var(--color-graphite)" text-anchor="start">FlatFold</text><text x="28" y="380" font-family="'IBM Plex Mono', ui-monospace, 'SFMono-Regular', monospace" font-size="12" font-weight="400" fill="var(--color-graphite-60)" text-anchor="start">security · encrypted messaging</text><text x="572" y="44" font-family="'IBM Plex Mono', ui-monospace, 'SFMono-Regular', monospace" font-size="11" font-weight="400" fill="var(--color-graphite-40)" text-anchor="end">ponderance.dev/workshop</text></svg>
