<svg viewBox="0 0 600 400" xmlns="http://www.w3.org/2000/svg" role="img" aria-label="Orrery — infra · a live map of every Ponderance project, with one bridge gone red"><defs><pattern id="orrery-fine" width="30" height="30" patternUnits="userSpaceOnUse"><path d="M30 0H0V30" fill="none" stroke="var(--color-grid-line)" stroke-width="1"/></pattern><pattern id="orrery-bold" width="120" height="120" patternUnits="userSpaceOnUse"><path d="M120 0H0V120" fill="none" stroke="var(--color-crease-line)" stroke-width="1"/></pattern></defs><rect x="0" y="0" width="600" height="400" fill="var(--color-graph)"/><rect x="0" y="0" width="600" height="400" fill="url(#orrery-fine)"/><rect x="0" y="0" width="600" height="400" fill="url(#orrery-bold)"/><rect x="14" y="14" width="572" height="372" fill="none" stroke="var(--color-graphite)" stroke-width="1" stroke-opacity="0.18"/><line x1="14" y1="14" x2="36" y2="14" stroke="var(--color-crease)" stroke-width="2.2" stroke-linecap="round"/><line x1="14" y1="14" x2="14" y2="36" stroke="var(--color-crease)" stroke-width="2.2" stroke-linecap="round"/><line x1="586" y1="14" x2="564" y2="14" stroke="var(--color-crease)" stroke-width="2.2" stroke-linecap="round"/><line x1="586" y1="14" x2="586" y2="36" stroke="var(--color-crease)" stroke-width="2.2" stroke-linecap="round"/><line x1="14" y1="386" x2="36" y2="386" stroke="var(--color-crease)" stroke-width="2.2" stroke-linecap="round"/><line x1="14" y1="386" x2="14" y2="364" stroke="var(--color-crease)" stroke-width="2.2" stroke-linecap="round"/><line x1="586" y1="386" x2="564" y2="386" stroke="var(--color-crease)" stroke-width="2.2" stroke-linecap="round"/><line x1="586" y1="386" x2="586" y2="364" stroke="var(--color-crease)" stroke-width="2.2" stroke-linecap="round"/><g><ellipse cx="300" cy="150" rx="118" ry="60" fill="none" stroke="var(--color-crease-line)" stroke-width="1.5"/><ellipse cx="300" cy="150" rx="118" ry="34" fill="none" stroke="var(--color-crease-line)" stroke-width="1.25" transform="rotate(24 300 150)"/><line x1="300" y1="150" x2="196" y2="108" stroke="var(--color-crease-line-bold)" stroke-width="1" stroke-linecap="round" stroke-dasharray="3 4"/><line x1="300" y1="150" x2="300" y2="86" stroke="var(--color-crease-line-bold)" stroke-width="1" stroke-linecap="round" stroke-dasharray="3 4"/><line x1="300" y1="150" x2="214" y2="206" stroke="var(--color-crease-line-bold)" stroke-width="1" stroke-linecap="round" stroke-dasharray="3 4"/><line x1="300" y1="150" x2="408" y2="108" stroke="var(--color-crease-line-bold)" stroke-width="1" stroke-linecap="round" stroke-dasharray="3 4"/><line x1="300" y1="150" x2="392" y2="202" stroke="var(--color-crane)" stroke-width="2.2" stroke-linecap="round"/><circle cx="196" cy="108" r="7" fill="var(--color-graph-card)" stroke="var(--color-crease)" stroke-width="1.4"/><circle cx="300" cy="86" r="7" fill="var(--color-graph-card)" stroke="var(--color-crease)" stroke-width="1.4"/><circle cx="214" cy="206" r="7" fill="var(--color-graph-card)" stroke="var(--color-crease)" stroke-width="1.4"/><circle cx="408" cy="108" r="7" fill="var(--color-graph-card)" stroke="var(--color-crease)" stroke-width="1.4"/><circle cx="392" cy="202" r="11" fill="none" stroke="var(--color-crane)" stroke-width="1.5" stroke-opacity="0.6"/><circle cx="392" cy="202" r="7" fill="var(--color-graph-card)" stroke="var(--color-crane)" stroke-width="1.6"/><circle cx="300" cy="150" r="17" fill="var(--color-graph)" stroke="var(--color-graphite)" stroke-width="1.8"/><circle cx="300" cy="150" r="4.5" fill="var(--color-crease)"/><text x="392" y="230" font-family="'IBM Plex Mono', ui-monospace, 'SFMono-Regular', monospace" font-size="9" fill="var(--art-accent)" text-anchor="middle">drift</text></g><line x1="28" y1="330" x2="150" y2="330" stroke="var(--color-crane)" stroke-width="2.6" stroke-linecap="round"/><text x="28" y="360" font-family="'IBM Plex Mono', ui-monospace, 'SFMono-Regular', monospace" font-size="21" font-weight="500" fill="var(--color-graphite)" text-anchor="start">Orrery</text><text x="28" y="380" font-family="'IBM Plex Mono', ui-monospace, 'SFMono-Regular', monospace" font-size="12" fill="var(--color-graphite-60)" text-anchor="start">infra · a live map of everything i've built</text><text x="572" y="44" font-family="'IBM Plex Mono', ui-monospace, 'SFMono-Regular', monospace" font-size="11" fill="var(--color-graphite-40)" text-anchor="end">ponderance.dev/workshop</text></svg>
