<svg viewBox="0 0 600 400" xmlns="http://www.w3.org/2000/svg" role="img" width="100%" style="max-width:600px;height:auto">
<rect x="0" y="0" width="600" height="400" rx="0" fill="#EEF0EC" fill-opacity="1"/>
<line x1="0" y1="0" x2="0" y2="400" stroke="#2E5E8C" stroke-width="1" stroke-opacity="0.07" stroke-linecap="round"/>
<line x1="30" y1="0" x2="30" y2="400" stroke="#2E5E8C" stroke-width="1" stroke-opacity="0.07" stroke-linecap="round"/>
<line x1="60" y1="0" x2="60" y2="400" stroke="#2E5E8C" stroke-width="1" stroke-opacity="0.07" stroke-linecap="round"/>
<line x1="90" y1="0" x2="90" y2="400" stroke="#2E5E8C" stroke-width="1" stroke-opacity="0.07" stroke-linecap="round"/>
<line x1="120" y1="0" x2="120" y2="400" stroke="#2E5E8C" stroke-width="1" stroke-opacity="0.07" stroke-linecap="round"/>
<line x1="150" y1="0" x2="150" y2="400" stroke="#2E5E8C" stroke-width="1" stroke-opacity="0.07" stroke-linecap="round"/>
<line x1="180" y1="0" x2="180" y2="400" stroke="#2E5E8C" stroke-width="1" stroke-opacity="0.07" stroke-linecap="round"/>
<line x1="210" y1="0" x2="210" y2="400" stroke="#2E5E8C" stroke-width="1" stroke-opacity="0.07" stroke-linecap="round"/>
<line x1="240" y1="0" x2="240" y2="400" stroke="#2E5E8C" stroke-width="1" stroke-opacity="0.07" stroke-linecap="round"/>
<line x1="270" y1="0" x2="270" y2="400" stroke="#2E5E8C" stroke-width="1" stroke-opacity="0.07" stroke-linecap="round"/>
<line x1="300" y1="0" x2="300" y2="400" stroke="#2E5E8C" stroke-width="1" stroke-opacity="0.07" stroke-linecap="round"/>
<line x1="330" y1="0" x2="330" y2="400" stroke="#2E5E8C" stroke-width="1" stroke-opacity="0.07" stroke-linecap="round"/>
<line x1="360" y1="0" x2="360" y2="400" stroke="#2E5E8C" stroke-width="1" stroke-opacity="0.07" stroke-linecap="round"/>
<line x1="390" y1="0" x2="390" y2="400" stroke="#2E5E8C" stroke-width="1" stroke-opacity="0.07" stroke-linecap="round"/>
<line x1="420" y1="0" x2="420" y2="400" stroke="#2E5E8C" stroke-width="1" stroke-opacity="0.07" stroke-linecap="round"/>
<line x1="450" y1="0" x2="450" y2="400" stroke="#2E5E8C" stroke-width="1" stroke-opacity="0.07" stroke-linecap="round"/>
<line x1="480" y1="0" x2="480" y2="400" stroke="#2E5E8C" stroke-width="1" stroke-opacity="0.07" stroke-linecap="round"/>
<line x1="510" y1="0" x2="510" y2="400" stroke="#2E5E8C" stroke-width="1" stroke-opacity="0.07" stroke-linecap="round"/>
<line x1="540" y1="0" x2="540" y2="400" stroke="#2E5E8C" stroke-width="1" stroke-opacity="0.07" stroke-linecap="round"/>
<line x1="570" y1="0" x2="570" y2="400" stroke="#2E5E8C" stroke-width="1" stroke-opacity="0.07" stroke-linecap="round"/>
<line x1="600" y1="0" x2="600" y2="400" stroke="#2E5E8C" stroke-width="1" stroke-opacity="0.07" stroke-linecap="round"/>
<line x1="0" y1="0" x2="600" y2="0" stroke="#2E5E8C" stroke-width="1" stroke-opacity="0.07" stroke-linecap="round"/>
<line x1="0" y1="30" x2="600" y2="30" stroke="#2E5E8C" stroke-width="1" stroke-opacity="0.07" stroke-linecap="round"/>
<line x1="0" y1="60" x2="600" y2="60" stroke="#2E5E8C" stroke-width="1" stroke-opacity="0.07" stroke-linecap="round"/>
<line x1="0" y1="90" x2="600" y2="90" stroke="#2E5E8C" stroke-width="1" stroke-opacity="0.07" stroke-linecap="round"/>
<line x1="0" y1="120" x2="600" y2="120" stroke="#2E5E8C" stroke-width="1" stroke-opacity="0.07" stroke-linecap="round"/>
<line x1="0" y1="150" x2="600" y2="150" stroke="#2E5E8C" stroke-width="1" stroke-opacity="0.07" stroke-linecap="round"/>
<line x1="0" y1="180" x2="600" y2="180" stroke="#2E5E8C" stroke-width="1" stroke-opacity="0.07" stroke-linecap="round"/>
<line x1="0" y1="210" x2="600" y2="210" stroke="#2E5E8C" stroke-width="1" stroke-opacity="0.07" stroke-linecap="round"/>
<line x1="0" y1="240" x2="600" y2="240" stroke="#2E5E8C" stroke-width="1" stroke-opacity="0.07" stroke-linecap="round"/>
<line x1="0" y1="270" x2="600" y2="270" stroke="#2E5E8C" stroke-width="1" stroke-opacity="0.07" stroke-linecap="round"/>
<line x1="0" y1="300" x2="600" y2="300" stroke="#2E5E8C" stroke-width="1" stroke-opacity="0.07" stroke-linecap="round"/>
<line x1="0" y1="330" x2="600" y2="330" stroke="#2E5E8C" stroke-width="1" stroke-opacity="0.07" stroke-linecap="round"/>
<line x1="0" y1="360" x2="600" y2="360" stroke="#2E5E8C" stroke-width="1" stroke-opacity="0.07" stroke-linecap="round"/>
<line x1="0" y1="390" x2="600" y2="390" stroke="#2E5E8C" stroke-width="1" stroke-opacity="0.07" stroke-linecap="round"/>
<line x1="0" y1="0" x2="0" y2="400" stroke="#2E5E8C" stroke-width="1" stroke-opacity="0.13" stroke-linecap="round"/>
<line x1="120" y1="0" x2="120" y2="400" stroke="#2E5E8C" stroke-width="1" stroke-opacity="0.13" stroke-linecap="round"/>
<line x1="240" y1="0" x2="240" y2="400" stroke="#2E5E8C" stroke-width="1" stroke-opacity="0.13" stroke-linecap="round"/>
<line x1="360" y1="0" x2="360" y2="400" stroke="#2E5E8C" stroke-width="1" stroke-opacity="0.13" stroke-linecap="round"/>
<line x1="480" y1="0" x2="480" y2="400" stroke="#2E5E8C" stroke-width="1" stroke-opacity="0.13" stroke-linecap="round"/>
<line x1="600" y1="0" x2="600" y2="400" stroke="#2E5E8C" stroke-width="1" stroke-opacity="0.13" stroke-linecap="round"/>
<line x1="0" y1="0" x2="600" y2="0" stroke="#2E5E8C" stroke-width="1" stroke-opacity="0.13" stroke-linecap="round"/>
<line x1="0" y1="120" x2="600" y2="120" stroke="#2E5E8C" stroke-width="1" stroke-opacity="0.13" stroke-linecap="round"/>
<line x1="0" y1="240" x2="600" y2="240" stroke="#2E5E8C" stroke-width="1" stroke-opacity="0.13" stroke-linecap="round"/>
<line x1="0" y1="360" x2="600" y2="360" stroke="#2E5E8C" stroke-width="1" stroke-opacity="0.13" stroke-linecap="round"/>
<rect x="14" y="14" width="572" height="372" rx="0" fill="none" fill-opacity="0.22" stroke="#1B2A33" stroke-width="1"/>
<line x1="14" y1="14" x2="40" y2="14" stroke="#D9A521" stroke-width="2.4" stroke-opacity="1" stroke-linecap="round"/>
<line x1="14" y1="14" x2="14" y2="40" stroke="#D9A521" stroke-width="2.4" stroke-opacity="1" stroke-linecap="round"/>
<line x1="586" y1="386" x2="560" y2="386" stroke="#D9A521" stroke-width="2.4" stroke-opacity="1" stroke-linecap="round"/>
<line x1="586" y1="386" x2="586" y2="360" stroke="#D9A521" stroke-width="2.4" stroke-opacity="1" stroke-linecap="round"/>
<polygon points="240,140 330,140 330,200 240,200" fill="none" fill-opacity="1" stroke="#1B2A33" stroke-width="2" stroke-linejoin="round"/>
<path d="M 240 140 l 45 36 l 45 -36" fill="none" fill-opacity="1" stroke="#1B2A33" stroke-width="1.6" stroke-linejoin="round" stroke-linecap="round"/>
<polygon points="300,120 318,120 309,136" fill="#D9A521" fill-opacity="1"/>
<line x1="309" y1="120" x2="309" y2="150" stroke="#D9A521" stroke-width="2" stroke-opacity="1" stroke-linecap="round"/>
<line x1="370" y1="200" x2="370" y2="160" stroke="#1B2A33" stroke-width="1.6" stroke-opacity="1" stroke-linecap="round"/>
<line x1="370" y1="170" x2="356" y2="156" stroke="#1B2A33" stroke-width="1.4" stroke-opacity="1" stroke-linecap="round"/>
<line x1="370" y1="170" x2="384" y2="156" stroke="#1B2A33" stroke-width="1.4" stroke-opacity="1" stroke-linecap="round"/>
<circle cx="356" cy="156" r="4" fill="#D9A521" fill-opacity="1"/>
<circle cx="384" cy="156" r="4" fill="none" fill-opacity="1" stroke="#1B2A33" stroke-width="1.4"/>
<circle cx="370" cy="160" r="4" fill="none" fill-opacity="1" stroke="#1B2A33" stroke-width="1.4"/>
<line x1="28" y1="330" x2="178" y2="330" stroke="#D9A521" stroke-width="2.6" stroke-opacity="1" stroke-linecap="round"/>
<text x="28" y="360" font-family="'IBM Plex Mono', ui-monospace, monospace" font-size="21" font-weight="500" fill="#1B2A33" fill-opacity="1" text-anchor="start">SpamStudy</text>
<text x="28" y="380" font-family="'IBM Plex Mono', ui-monospace, monospace" font-size="12" font-weight="400" fill="#1B2A33" fill-opacity="0.6" text-anchor="start">ml · random forest</text>
<text x="572" y="44" font-family="'IBM Plex Mono', ui-monospace, monospace" font-size="11" font-weight="400" fill="#1B2A33" fill-opacity="0.4" text-anchor="end">ponderance.dev/workshop</text>
</svg>
