<svg viewBox="31.0 13.0 378.0 379.5" xmlns="http://www.w3.org/2000/svg" role="img"><polygon points="220.00,36.00 164.67,124.00 275.33,124.00" fill="var(--color-crease)" fill-opacity="0.12"/><polygon points="275.33,124.00 220.00,212.00 330.67,212.00" fill="none"/><polygon points="330.67,212.00 275.33,300.00 386.00,300.00" fill="var(--color-crease)" fill-opacity="0.12"/><polygon points="164.67,124.00 109.33,212.00 220.00,212.00" fill="none"/><polygon points="220.00,212.00 164.67,300.00 275.33,300.00" fill="var(--color-crease)" fill-opacity="0.12"/><polygon points="109.33,212.00 54.00,300.00 164.67,300.00" fill="var(--color-crease)" fill-opacity="0.12"/><line x1="164.67" y1="124.00" x2="275.33" y2="300.00" stroke="var(--color-crease)" stroke-width="1.4" stroke-opacity="1" stroke-linecap="round"/><line x1="275.33" y1="124.00" x2="164.67" y2="300.00" stroke="var(--color-crease)" stroke-width="1.4" stroke-opacity="1" stroke-linecap="round"/><line x1="164.67" y1="124.00" x2="275.33" y2="124.00" stroke="var(--color-crease)" stroke-width="1.4" stroke-opacity="1" stroke-linecap="round"/><line x1="109.33" y1="212.00" x2="164.67" y2="300.00" stroke="var(--color-crease)" stroke-width="1.4" stroke-opacity="1" stroke-linecap="round"/><line x1="330.67" y1="212.00" x2="275.33" y2="300.00" stroke="var(--color-crease)" stroke-width="1.4" stroke-opacity="1" stroke-linecap="round"/><line x1="109.33" y1="212.00" x2="330.67" y2="212.00" stroke="var(--color-crease)" stroke-width="1.4" stroke-opacity="1" stroke-linecap="round"/><polygon points="220.00,36.00 54.00,300.00 386.00,300.00" fill="none" stroke="var(--color-graphite)" stroke-width="2.6" stroke-opacity="1" stroke-linejoin="round" stroke-linecap="round"/><circle cx="220.00" cy="36.00" r="5.00" fill="var(--color-crane)" fill-opacity="1"/><circle cx="275.33" cy="124.00" r="3.40" fill="var(--color-crease)" fill-opacity="1"/><circle cx="330.67" cy="212.00" r="3.40" fill="var(--color-crease)" fill-opacity="1"/><circle cx="386.00" cy="300.00" r="5.00" fill="var(--color-crane)" fill-opacity="1"/><circle cx="164.67" cy="124.00" r="3.40" fill="var(--color-crease)" fill-opacity="1"/><circle cx="220.00" cy="212.00" r="3.40" fill="var(--color-crease)" fill-opacity="1"/><circle cx="275.33" cy="300.00" r="3.40" fill="var(--color-crease)" fill-opacity="1"/><circle cx="109.33" cy="212.00" r="3.40" fill="var(--color-crease)" fill-opacity="1"/><circle cx="164.67" cy="300.00" r="3.40" fill="var(--color-crease)" fill-opacity="1"/><circle cx="54.00" cy="300.00" r="5.00" fill="var(--color-crane)" fill-opacity="1"/><line x1="164.67" y1="300.00" x2="275.33" y2="300.00" stroke="var(--color-crane)" stroke-width="4" stroke-opacity="1" stroke-linecap="round"/><text x="220.0" y="322.0" font-family="'IBM Plex Mono', ui-monospace, 'SFMono-Regular', monospace" font-size="11" font-weight="400" fill="var(--art-accent)" fill-opacity="1" text-anchor="middle">1 paper unit</text><text x="220.0" y="350.0" font-family="'IBM Plex Mono', ui-monospace, 'SFMono-Regular', monospace" font-size="14" font-weight="500" fill="var(--color-graphite)" fill-opacity="1" text-anchor="middle">T = 9</text><text x="220.0" y="372.0" font-family="'IBM Plex Mono', ui-monospace, 'SFMono-Regular', monospace" font-size="11.5" font-weight="400" fill="var(--color-graphite-60)" fill-opacity="1" text-anchor="middle">9 small triangles</text></svg>