<svg viewBox="0 0 760 420" xmlns="http://www.w3.org/2000/svg" role="img" width="100%" style="max-width:760px;height:auto">
<path d="M 530 90 q 0 -30 32 -30 q 8 -24 38 -20 q 28 -10 38 20 q 28 2 26 30 q 0 26 -30 26 l -78 0 q -30 0 -26 -26 z" fill="#EEF0EC" fill-opacity="1" stroke="#1B2A33" stroke-width="2" stroke-linejoin="round" stroke-linecap="round"/>
<text x="600" y="96" font-family="'IBM Plex Mono', ui-monospace, monospace" font-size="13" font-weight="400" fill="#1B2A33" fill-opacity="1" text-anchor="middle">internet</text>
<rect x="50" y="170" width="480" height="180" rx="14" fill="none" fill-opacity="1" stroke="#1B2A33" stroke-width="2" stroke-dasharray="8 6"/>
<rect x="85" y="225" width="170" height="100" rx="10" fill="none" fill-opacity="1" stroke="#2E5E8C" stroke-width="2"/>
<text x="170" y="255" font-family="'IBM Plex Mono', ui-monospace, monospace" font-size="13" font-weight="500" fill="#2E5E8C" fill-opacity="1" text-anchor="middle">VPN container</text>
<circle cx="120" cy="298" r="8" fill="none" fill-opacity="1" stroke="#1B2A33" stroke-width="1.6"/>
<line x1="112" y1="298" x2="128" y2="298" stroke="#1B2A33" stroke-width="1.2" stroke-opacity="1" stroke-linecap="round"/>
<line x1="120" y1="290" x2="120" y2="306" stroke="#1B2A33" stroke-width="1.2" stroke-opacity="1" stroke-linecap="round"/>
<text x="138" y="302" font-family="'IBM Plex Mono', ui-monospace, monospace" font-size="11" font-weight="400" fill="#1B2A33" fill-opacity="0.75" text-anchor="start">holds the interface</text>
<rect x="320" y="225" width="170" height="100" rx="10" fill="none" fill-opacity="1" stroke="#1B2A33" stroke-width="2"/>
<text x="405" y="253" font-family="'IBM Plex Mono', ui-monospace, monospace" font-size="13" font-weight="500" fill="#1B2A33" fill-opacity="1" text-anchor="middle">torrent client</text>
<text x="405" y="278" font-family="'IBM Plex Mono', ui-monospace, monospace" font-size="11" font-weight="400" fill="#E84A27" fill-opacity="1" text-anchor="middle">no IP of its own</text>
<text x="405" y="300" font-family="'IBM Plex Mono', ui-monospace, monospace" font-size="11" font-weight="400" fill="#1B2A33" fill-opacity="0.7" text-anchor="middle">borrows the VPN’s</text>
<line x1="320" y1="272" x2="255" y2="272" stroke="#E84A27" stroke-width="2.2" stroke-opacity="1" stroke-linecap="round"/>
<line x1="255" y1="272" x2="263.1" y2="268.09" stroke="#E84A27" stroke-width="2.2" stroke-opacity="1" stroke-linecap="round"/>
<line x1="255" y1="272" x2="263.1" y2="275.91" stroke="#E84A27" stroke-width="2.2" stroke-opacity="1" stroke-linecap="round"/>
<text x="288" y="264" font-family="'IBM Plex Mono', ui-monospace, monospace" font-size="10" font-weight="400" fill="#E84A27" fill-opacity="1" text-anchor="middle">all traffic</text>
<line x1="240" y1="225" x2="560" y2="128" stroke="#2E5E8C" stroke-width="2.2" stroke-opacity="1" stroke-linecap="round" stroke-dasharray="6 5"/>
<line x1="560" y1="128" x2="553.38" y2="134.1" stroke="#2E5E8C" stroke-width="2.2" stroke-opacity="1" stroke-linecap="round"/>
<line x1="560" y1="128" x2="551.11" y2="126.6" stroke="#2E5E8C" stroke-width="2.2" stroke-opacity="1" stroke-linecap="round"/>
<text x="420" y="166" font-family="'IBM Plex Mono', ui-monospace, monospace" font-size="11" font-weight="400" fill="#2E5E8C" fill-opacity="1" text-anchor="middle">tunnel</text>
<text x="66" y="342" font-family="'IBM Plex Mono', ui-monospace, monospace" font-size="12" font-weight="400" fill="#1B2A33" fill-opacity="0.75" text-anchor="start">shared network namespace</text>
<text x="380" y="392" font-family="'IBM Plex Mono', ui-monospace, monospace" font-size="11" font-weight="400" fill="#1B2A33" fill-opacity="0.85" text-anchor="middle">tunnel down → the torrent client has no network at all — the kill-switch is the wiring, not a setting.</text>
</svg>
